<svg width="101" height="48" viewBox="0 0 101 48" fill="none" xmlns="http://www.w3.org/2000/svg">
<path d="M97.2757 0.0630089C96.7347 0.177527 95.6265 0.565126 94.8936 0.90868C91.6128 2.44146 88.8119 5.54225 87.5118 9.09231C86.9359 10.6603 86.5956 12.6776 86.5956 14.5716V15.2146H85.0425C83.2537 15.2146 82.9047 15.2939 82.2939 15.8313C81.7267 16.3422 81.4999 16.9236 81.5522 17.7693C81.6133 18.7911 82.067 19.4782 82.9309 19.8746C83.2799 20.0332 83.5068 20.0596 84.9552 20.0596H86.5956L86.613 32.7623L86.6392 45.4738L86.8835 45.9759C87.1453 46.5045 87.5729 46.9185 88.14 47.1651C88.6635 47.403 90.1818 47.3854 90.7053 47.1387C91.1852 46.9097 91.6477 46.4604 91.8833 45.9935C92.0403 45.6588 92.0491 45.3064 92.0752 32.8504L92.0927 20.0596H95.103C97.5723 20.0596 98.1744 20.0332 98.4274 19.9275C99.2564 19.5751 99.841 18.7735 99.9195 17.8662C100.015 16.8355 99.5443 15.9722 98.6543 15.5053L98.0959 15.2146H95.0855H92.0665L92.1276 14.0959C92.2497 11.8143 92.7558 10.2992 93.9338 8.68709C95.0419 7.17193 96.3857 6.22936 98.3663 5.56868C99.3436 5.24275 99.8933 4.79348 100.286 4.00067C100.548 3.48093 100.583 3.31356 100.583 2.7674C100.574 2.03624 100.382 1.5077 99.9369 0.987962C99.2913 0.247999 98.218 -0.130791 97.2757 0.0630089Z" fill="#14B3FC"/>
<path d="M2.696 0.0850893C2.11586 0.242181 1.79264 0.442908 1.40312 0.870546C0.980442 1.32437 0.789824 1.71709 0.673795 2.37164C0.557767 3.04364 0.54948 36.0241 0.665508 37.5252C0.814687 39.3754 1.12962 40.6408 1.82579 42.1856C2.77059 44.2801 4.12978 45.755 5.92822 46.6278C7.46145 47.3696 9.8566 47.5616 11.1909 47.0379C13.0474 46.3136 13.7435 44.5856 12.8982 42.7877C12.575 42.0983 12.2849 41.8016 11.6219 41.4961C11.2987 41.339 11.0003 41.3041 9.90633 41.2605C8.65488 41.2081 8.55543 41.1906 8.19077 40.9637C7.51946 40.5536 6.98076 39.6896 6.6161 38.459L6.42548 37.8045L6.38404 20.0444L6.3426 2.28437L6.08568 1.71709C5.77075 1.00146 5.40609 0.626182 4.75965 0.303272C4.14635 -0.00218364 3.32587 -0.0807293 2.696 0.0850893Z" fill="#14B3FC"/>
<path d="M33.0302 10.2539C30.2402 10.5342 27.9316 11.3209 25.8102 12.7135C21.8437 15.3087 19.0449 19.7576 18.4388 24.4417C18.3496 25.1379 18.3229 27.6066 18.3229 35.2475V45.1491L18.6081 45.7459C19.4727 47.5273 21.6922 47.8619 23.1094 46.4331C23.3768 46.1619 23.5908 45.8273 23.7066 45.5108C23.8938 45.0135 23.8938 44.8869 23.8938 35.7991C23.8938 26.5847 23.9295 25.4092 24.2147 24.1433C25.0971 20.273 28.1901 17.072 31.8803 16.2129C34.5544 15.58 37.478 16.1316 39.7688 17.714C41.5604 18.9438 43.1113 21.0507 43.8066 23.1757C44.3681 24.9209 44.3325 24.2246 44.386 35.1571L44.4394 45.1491L44.7158 45.7459C45.3486 47.1023 46.9887 47.7172 48.3168 47.0842C48.9942 46.7677 49.6003 46.1257 49.8321 45.5018C50.0193 44.9863 50.0193 44.9682 49.9836 34.8948C49.9569 24.0257 49.9747 24.4688 49.4845 22.5246C48.602 19.0252 46.5252 15.806 43.7264 13.5996C41.6228 11.9358 39.1805 10.8417 36.6401 10.4257C35.7844 10.2901 33.6808 10.1906 33.0302 10.2539Z" fill="#14B3FC"/>
<path d="M64.8954 10.3423C61.9998 10.8219 59.0085 12.5273 57.4781 14.5613C56.2086 16.2578 55.6694 17.8654 55.6694 19.9083C55.6781 22.3598 56.3129 23.923 58.0172 25.6728C59.7042 27.3959 61.565 28.4351 66.278 30.2737C70.4431 31.8992 71.8344 32.6275 72.7909 33.6933C73.8431 34.8569 73.9648 36.58 73.1126 38.4009C72.1822 40.4171 70.1649 41.5718 67.3475 41.705C65.4867 41.7938 64.2693 41.5007 63.0258 40.6658C61.9911 39.973 61.1911 38.9782 60.452 37.4682C59.9302 36.4113 59.6694 36.1004 58.9998 35.7629C58.5129 35.5231 58.3303 35.4786 57.8085 35.4786C56.9564 35.4786 56.1825 35.8428 55.6868 36.4823C55.1738 37.1485 55.0347 37.5926 55.0781 38.4275C55.1129 39.0315 55.1738 39.2358 55.5738 40.0885C57.1651 43.4903 59.7998 45.8529 63.1041 46.8389C65.9128 47.6738 69.7301 47.434 72.417 46.2615C75.7387 44.8137 77.956 42.1846 78.8604 38.6318C79.156 37.4505 79.243 35.2744 79.0256 34.1819C78.8256 33.2137 78.4691 32.2722 77.956 31.384C77.4256 30.4691 75.9213 28.9059 74.843 28.1687C73.4605 27.2183 71.2431 26.1524 68.2345 24.9978C63.278 23.097 61.8259 22.2088 61.278 20.7255C61.0694 20.1837 61.1302 19.1978 61.4085 18.5938C62.0954 17.1105 64.4345 15.867 66.5823 15.867C68.8866 15.8581 70.7909 16.915 71.6953 18.7004C72.304 19.8906 73.2344 20.4679 74.4517 20.3968C75.217 20.3524 75.6256 20.157 76.1822 19.6152C76.7387 19.0645 76.93 18.576 76.93 17.6611C76.93 16.9417 76.9126 16.8706 76.5213 16.0624C75.8778 14.7034 75.1474 13.7708 73.9822 12.8115C72.6257 11.6746 70.8953 10.8575 69.0605 10.4755C67.8345 10.2179 65.991 10.1558 64.8954 10.3423Z" fill="#14B3FC"/>
</svg>
